<svg xmlns="http://www.w3.org/2000/svg" viewBox="0 0 32 32"><g fill="none" fill-rule="evenodd"><polygon fill="#00467D" points="31.998 0 0 .01 .002 32 32 31.992"/><g fill="#FFFFFF" transform="translate(2.667 10.667)"><path d="M27.1 3.44c-.12-.21-.4-.38-.76-.42a2.08 2.08 0 0 0-.9.08.18.18 0 0 0-.1.08.36.36 0 0 0-.05.12v.06c0 .05.03.08.05.1.02.02.06.02.09.02h.05l.2-.03v.02l.02.2a2.53 2.53 0 0 1-2.4 2.74 3.4 3.4 0 0 1-1.77-.36c-.67-.35-1.13-.85-1.35-1.08l-.09-.1c-.03-.02-.05-.05-.1-.05a.1.1 0 0 0-.06.03.62.62 0 0 0-.1.18.58.58 0 0 0-.05.22c.01.15.05.67.51 1.07.19.16.38.27.54.34.16.07.29.1.35.1h.01a.1.1 0 0 0 .09-.05.16.16 0 0 0 0-.08c0-.1-.06-.23-.06-.23l-.02-.03-.06-.01a1.82 1.82 0 0 1-.48-.23 1.42 1.42 0 0 1-.54-.73 4.1 4.1 0 0 0 3.35 1.45c.4-.03.8-.13 1.18-.34a3 3 0 0 0 1.62-3.08c.09.03.26.1.4.31 0 0 .04.05.08.06l.06.01c.04 0 .07-.01.1-.03l.14-.1c.04-.06.08-.11.08-.18l-.02-.06M2.75.79c1.38-.1 2.15.63 2.15.63l-.44.8s-.7-.56-1.6-.5c-1.2.1-1.83 1.03-1.76 2.09.08 1.07.87 1.97 2.05 1.89.98-.07 1.6-.83 1.6-.83l.59.7s-.72.97-2.16 1.07A2.85 2.85 0 0 1 .04 3.9 2.85 2.85 0 0 1 2.75.79M5.23 2.3l1.02-.07.17 2.41c.03.5.18.82.69.79.73-.05 1.1-.73 1.04-1.45l-.13-1.87 1.01-.07.29 4.07-.97.07-.04-.47v-.29h-.02c-.17.44-.66.9-1.35.95-.87.06-1.44-.34-1.52-1.45M9.37.43l1-.08.3 4.25c.03.44.2.54.46.52l.15-.01.06.88s-.15.04-.32.05c-.56.04-1.26-.06-1.34-1.22m6.83-3.3l.13 1.87c.05.73-.31 1.4-1.05 1.45-.5.04-.65-.29-.68-.78l-.17-2.41-2.28.16L12.4.7l-1 .07.08 1.1-.55.05.06.8.53-.04.12 1.78c.1 1.36 1.23 1.45 1.8 1.41.2-.01.31-.05.31-.05l-.06-.88-.18.03c-.28.02-.82-.04-.86-.71l-.12-1.65 1.26-.08.13 1.8c.07 1.12.65 1.52 1.52 1.46.7-.05 1.18-.51 1.35-.95h.02v.29l.03.46.98-.07-.29-4.07m.54-.03l.98-.07.04.7c.02.15.01.29.01.29h.01c.15-.6.6-1.1 1.22-1.14h.19l.07 1h-.24c-.43.03-.9.31-1.05.93-.05.2-.06.43-.04.67l.11 1.61-1.01.08"/><path d="M22.27 4.51c.53-.04.88-.64.84-1.13v-.1l-.18.02c-.52.03-1.35.16-1.31.73.02.27.23.51.65.48m.64-1.91l.14-.01v-.06c-.04-.53-.4-.7-.84-.66-.58.04-1.09.47-1.09.47l-.43-.7s.6-.55 1.56-.61c1.07-.08 1.73.47 1.8 1.5l.18 2.54-.93.07-.02-.34c-.02-.16 0-.29 0-.29h-.03c.01 0-.26.75-1.18.81-.73.05-1.41-.36-1.47-1.17-.1-1.3 1.65-1.5 2.31-1.55M.87 7.49l.16-.01.16 2.24c.02.27.16.29.25.28h.05l.02.14-.07.01c-.11.01-.38-.01-.4-.37"/><polyline points="1.517 7.407 1.683 7.395 1.722 7.974 1.557 7.984"/><path d="M3.62 8.85c-.05-.47-.34-.66-.66-.64-.35.03-.66.28-.7.73m.7-.88c.51-.03.8.36.83.82v.1l-1.53.11c.04.56.43.85.88.82.37-.03.58-.28.58-.28l.1.12s-.26.29-.67.31a.96.96 0 0 1-1.06-.92c-.04-.65.37-1.04.86-1.08M4.13 9.6s.23.22.61.2c.24-.02.43-.16.42-.4-.04-.48-1.08-.27-1.12-.9-.03-.33.25-.53.57-.55.4-.03.58.17.58.17l-.08.13s-.17-.17-.5-.14c-.21.01-.42.13-.4.37.03.5 1.07.28 1.12.91.02.3-.23.54-.58.56-.46.04-.71-.22-.71-.22m2.47-.06c.38-.02.66-.36.62-.9-.03-.5-.33-.82-.72-.79-.35.02-.67.3-.62.9.03.42.3.82.72.8zm-.95-1.74l.16-.01.02.23a.9.9 0 0 1 0 .15s.13-.44.66-.48c.52-.03.86.35.9.95.04.6-.28 1.02-.78 1.06-.5.03-.7-.39-.7-.39l.02.17.07.98-.16.02-.19-2.68zm2.03-.14l.16-.02.02.37v.16c.08-.3.28-.56.58-.58h.11l.01.16H8.4c-.3.02-.47.29-.54.57-.03.14-.03.28-.03.41l.06.83h-.16m1-1.98l.25-.01.2 1.91-.25.01-.2-1.91zm-.1-.77h.29l.03.27-.29.01-.03-.28zm.78.88l-.25.01V7.7l.25-.02-.04-.54.16-.01.04.54.5-.04v.15l-.5.03.08 1.06c.04.5.34.55.5.54.05 0 .08-.02.08-.02l.01.15-.1.01c-.2.02-.6-.02-.65-.66m1.81-2.11l.29-.02.03.28-.29.02-.03-.28zm.34.75l.21 1.99c.07.63-.54.74-.83.75h-.15l-.01-.15h.13c.22 0 .67-.1.62-.59l-.2-1.99.23-.01zm.2-.03l.16-.01.08 1.15c.02.34.09.65.52.62.48-.04.75-.48.72-.93l-.06-.93.16-.01.13 1.91-.16.01-.02-.33V8.8a.87.87 0 0 1-.76.6c-.47.03-.65-.22-.69-.7m2.93.38c.37-.03.66-.36.62-.9-.04-.51-.33-.82-.73-.8-.35.03-.66.3-.62.9.03.43.28.83.73.8zm-1-2.51l.16-.01.07 1v.15s.13-.44.66-.48c.51-.04.86.35.9.94.04.61-.29 1.03-.79 1.07a.74.74 0 0 1-.7-.4v.01l.03.17.01.22h-.16l-.18-2.67zm2.1.62l.25-.01.2 1.91-.24.02-.2-1.92zm-.1-.76l.3-.01.02.27-.28.02-.03-.28zm.65-.05h.16l.15 2.23c.02.27.16.3.25.29l.06-.01v.15l-.06.01c-.11 0-.38-.01-.4-.37m2.06-.9c-.05-.46-.35-.66-.66-.63-.36.02-.66.27-.7.73m.69-.88c.52-.04.8.35.84.82v.1l-1.53.1c.04.56.43.85.88.82.36-.02.57-.28.57-.28l.1.13s-.25.28-.66.3a.96.96 0 0 1-1.06-.92c-.05-.65.37-1.04.86-1.07"/></g></g></svg>